<svg xmlns="http://www.w3.org/2000/svg" viewBox="0 0 177.14 54.36"><defs><style>.a{fill:#f8f9fb;}.b{fill:#70cee7;}</style></defs><title>skyline-logo-silver-text-blue-arc</title><path class="a" d="M28.72,25.29h-1V52.46a1.62,1.62,0,0,0,3.23,0V27.57a2.28,2.28,0,0,0-2.27-2.28M11.88,38.11c-6.29-1.35-7.75-2.86-7.75-5.55v-.09c0-2.57,2.36-4.61,6.08-4.61a12,12,0,0,1,7.39,2.49,1.52,1.52,0,0,0,.94.29,1.55,1.55,0,0,0,1.55-1.56,1.66,1.66,0,0,0-.69-1.3A14.59,14.59,0,0,0,10.29,25C4.86,25,.9,28.27.9,32.76v.08c0,4.7,3,6.82,9.6,8.25,6,1.27,7.43,2.78,7.43,5.43v.08c0,2.82-2.53,4.86-6.37,4.86a13,13,0,0,1-9-3.39,1.44,1.44,0,0,0-1-.37A1.57,1.57,0,0,0,0,49.3a1.45,1.45,0,0,0,.61,1.22,16.73,16.73,0,0,0,10.82,3.84c5.68,0,9.76-3.19,9.76-8.08v-.09c0-4.37-2.94-6.69-9.31-8.08M93.41,51H78.82V27.64a2.28,2.28,0,0,0-2.28-2.27h-1V54H93.41a1.49,1.49,0,1,0,0-3m37.1-23.33V48.28l-17-21.59a3.45,3.45,0,0,0-2.72-1.32h-1.34v27a1.58,1.58,0,0,0,3.15,0V30.51l17.42,22.12A3.45,3.45,0,0,0,132.76,54h.9V25.37h-.88a2.27,2.27,0,0,0-2.27,2.27M158,51H142.23V40.36h11a1.47,1.47,0,0,0,0-2.94h-11V28.31h15.61a1.47,1.47,0,0,0,0-2.94H139V54h19A1.47,1.47,0,0,0,158,51M100.67,25.37h-1v27a1.62,1.62,0,0,0,3.23,0V27.64a2.27,2.27,0,0,0-2.27-2.27m-65.09,15,9.32,12L46.15,54h3.91L39.37,40.36ZM61,37,51.78,25.34H48L59.35,39.92v12.4a1.63,1.63,0,0,0,3.26,0V39.91L74,25.34H70.17Z"/><path class="b" d="M171.22,20.13C155,7.15,133.52,0,110.66,0S66.28,7.15,50.09,20.13C49,21,47.86,22,46.79,22.92h4.4C66.27,10.54,87.36,2.84,110.66,2.84c24.79,0,47.08,8.73,62.3,22.53h4.18a79,79,0,0,0-5.92-5.24"/><path class="b" d="M44.22,25.34a68.88,68.88,0,0,0-11.67,15h3.34a66.93,66.93,0,0,1,12.5-15Z"/></svg>